<?xml version="1.0" encoding="UTF-8"?>
<svg width="24px" height="24px" viewBox="0 0 24 24" version="1.1" xmlns="http://www.w3.org/2000/svg" xmlns:xlink="http://www.w3.org/1999/xlink">
    <!-- Generator: Sketch 49.3 (51167) - http://www.bohemiancoding.com/sketch -->
    <title>账号</title>
    <desc>Created with Sketch.</desc>
    <defs></defs>
    <g id="Page-1" stroke="none" stroke-width="1" fill="none" fill-rule="evenodd">
        <g id="登录" transform="translate(-962.000000, -238.000000)" fill="#D8D8D8">
            <g id="Group-7" transform="translate(958.000000, 160.000000)">
                <g id="Group" transform="translate(0.000000, 66.000000)">
                    <g id="Group-9" transform="translate(4.000000, 12.000000)">
                        <path d="M13.4389545,12.8182583 C13.8805802,13.0567712 14.6592599,13.123022 15.8156738,13.2929688 C17.7622681,13.5790405 17.0435941,13.4681641 17.0435941,13.4681641 C19.2286567,13.7618889 20.5056179,15.7303375 19.900537,17.8481203 L19.2738979,20.0413573 C19.1226283,20.570801 18.5500512,21 17.9931545,21 L6.00684547,21 C5.45078007,21 4.87489104,20.5621186 4.72610208,20.0413573 L4.09946296,17.8481203 C3.49224633,15.7228622 4.77081685,13.7545593 6.9573317,13.4580012 C6.9573317,13.4580012 6.59078985,13.4972054 8.22821045,13.2929688 C9.23764298,13.1670615 10.0624581,13.0644994 10.5466518,12.7827303 C10.5756659,12.6796121 10.5917969,12.5811899 10.5917969,12.4898071 C10.5917969,12.0979877 10.4815446,11.7668547 10.3562156,11.5170168 C8.74151129,10.4744972 8,7.95003987 8,6 C8,3.51177979 9.80993652,2 12,2 C14.1900635,2 16,3.46252441 16,6 C16,7.95552288 15.2374543,10.5362534 13.5750387,11.55712 C13.4766838,11.7784635 13.4025269,12.080926 13.4025269,12.4898071 C13.4025269,12.598958 13.4154437,12.7087759 13.4389545,12.8182583 Z" id="Combined-Shape"></path>
                        <rect id="Rectangle-5" opacity="0" x="0" y="0" width="24" height="24"></rect>
                    </g>
                </g>
            </g>
        </g>
    </g>
</svg>