<?xml version="1.0" encoding="UTF-8"?>
<svg width="24px" height="24px" viewBox="0 0 24 24" version="1.1" xmlns="http://www.w3.org/2000/svg" xmlns:xlink="http://www.w3.org/1999/xlink">
    <!-- Generator: Sketch 49.3 (51167) - http://www.bohemiancoding.com/sketch -->
    <title>添加</title>
    <desc>Created with Sketch.</desc>
    <defs>
        <rect id="path-1" x="0" y="0" width="24" height="24"></rect>
    </defs>
    <g id="Page-1" stroke="none" stroke-width="1" fill="none" fill-rule="evenodd">
        <g id="首页" transform="translate(-1219.000000, -337.000000)">
            <g id="Group-11" transform="translate(113.000000, 252.000000)">
                <g id="Group-9-Copy" transform="translate(0.000000, 65.000000)">
                    <g id="Group-7" transform="translate(1106.000000, 20.000000)">
                        <g id="Rectangle-7-Copy" opacity="0">
                            <use fill="#D8D8D8" fill-rule="evenodd" xlink:href="#path-1"></use>
                            <rect stroke="#979797" stroke-width="1" x="0.5" y="0.5" width="23" height="23"></rect>
                        </g>
                        <path d="M17,17 L17,15 L19,15 L19,17 L21,17 L21,19 L19,19 L19,21 L17,21 L17,19 L15,19 L15,17 L17,17 Z M13,15 L13,21 L6,21 C4.8954305,21 4,20.1045695 4,19 L4,5 C4,3.8954305 4.8954305,3 6,3 L16,3 C17.1045695,3 18,3.8954305 18,5 L18,13 L15,13 L15,15 L13,15 Z M8,7 C7.44771525,7 7,7.44771525 7,8 C7,8.55228475 7.44771525,9 8,9 L14,9 C14.5522847,9 15,8.55228475 15,8 C15,7.44771525 14.5522847,7 14,7 L8,7 Z M8,12 C7.44771525,12 7,12.4477153 7,13 C7,13.5522847 7.44771525,14 8,14 L11,14 C11.5522847,14 12,13.5522847 12,13 C12,12.4477153 11.5522847,12 11,12 L8,12 Z" id="Combined-Shape" fill="#2ED3A8"></path>
                    </g>
                </g>
            </g>
        </g>
    </g>
</svg>