<?xml version="1.0" encoding="UTF-8"?>
<svg width="24px" height="24px" viewBox="0 0 24 24" version="1.1" xmlns="http://www.w3.org/2000/svg" xmlns:xlink="http://www.w3.org/1999/xlink">
    <!-- Generator: Sketch 49.3 (51167) - http://www.bohemiancoding.com/sketch -->
    <title>验证码</title>
    <desc>Created with Sketch.</desc>
    <defs></defs>
    <g id="Page-1" stroke="none" stroke-width="1" fill="none" fill-rule="evenodd">
        <g id="登录" transform="translate(-962.000000, -366.000000)" fill="#D8D8D8">
            <g id="Group-7" transform="translate(958.000000, 160.000000)">
                <g id="Group-Copy-2" transform="translate(0.000000, 194.000000)">
                    <g id="Group-10" transform="translate(4.000000, 12.000000)">
                        <path d="M10.9393398,12.267767 L9.52512627,10.8535534 C9.13460197,10.4630291 8.501437,10.4630291 8.1109127,10.8535534 C7.72038841,11.2440777 7.72038841,11.8772427 8.1109127,12.267767 L10.232233,14.3890873 C10.4274952,14.5843494 10.6834175,14.6819805 10.9393398,14.6819805 C11.1952621,14.6819805 11.4511845,14.5843494 11.6464466,14.3890873 L15.8890873,10.1464466 C16.2796116,9.75592232 16.2796116,9.12275734 15.8890873,8.73223305 C15.498563,8.34170876 14.865398,8.34170876 14.4748737,8.73223305 L10.9393398,12.267767 Z M5.14129275,4.27782613 C5.88723653,4.35785545 6.71148306,4.2845731 7.61403234,4.05797907 C8.58846684,3.81333753 9.56290134,3.41290509 10.5373358,2.85668173 L10.5373439,2.85669585 C11.4186592,2.35362649 12.4945576,2.33019878 13.3969358,2.79442819 C14.8159778,3.52445579 15.9260299,3.98918137 16.7270921,4.18860494 C17.3778565,4.35061203 18.0286209,4.38829703 18.6793853,4.30165995 C19.226838,4.22878135 19.729719,4.61349564 19.802602,5.16094775 C19.8120905,5.23221957 19.8138646,5.30430688 19.8078936,5.37595918 L19.0787282,14.125944 C18.9805518,15.3040611 18.3662605,16.3784065 17.4007472,17.0605959 L13.014096,20.1600121 C12.3161136,20.6531759 11.3818939,20.6483419 10.6890524,20.1479814 L6.41536489,17.0615838 C5.46869199,16.3779098 4.868042,15.3146923 4.77106708,14.1509932 L4.03812143,5.35511854 C3.99225868,4.80476559 4.40122879,4.32143728 4.95158174,4.27557453 C5.01474718,4.27031075 5.07827003,4.27106467 5.14129275,4.27782613 Z" id="Combined-Shape"></path>
                    </g>
                </g>
            </g>
        </g>
    </g>
</svg>