<?xml version="1.0" encoding="UTF-8"?>
<svg width="24px" height="24px" viewBox="0 0 24 24" version="1.1" xmlns="http://www.w3.org/2000/svg" xmlns:xlink="http://www.w3.org/1999/xlink">
    <!-- Generator: Sketch 49.3 (51167) - http://www.bohemiancoding.com/sketch -->
    <title>删除</title>
    <desc>Created with Sketch.</desc>
    <defs></defs>
    <g id="Page-1" stroke="none" stroke-width="1" fill="none" fill-rule="evenodd">
        <g id="报告编辑_状态" transform="translate(-497.000000, -320.000000)">
            <g id="Group-7" transform="translate(465.000000, 288.000000)">
                <g id="Icon/Question" transform="translate(32.000000, 32.000000)">
                    <g id="Group-11">
                        <circle id="Oval-5" fill="#F5222D" cx="12" cy="12" r="12"></circle>
                        <path d="M14,7 L16.5,7 C16.7761424,7 17,7.22385763 17,7.5 C17,7.77614237 16.7761424,8 16.5,8 L7.5,8 C7.22385763,8 7,7.77614237 7,7.5 C7,7.22385763 7.22385763,7 7.5,7 L10,7 C10,6.44771525 10.4477153,6 11,6 L13,6 C13.5522847,6 14,6.44771525 14,7 Z M7.55863251,9 L16.4413675,9 C16.7175099,9 16.9413675,9.22385763 16.9413675,9.5 C16.9413675,9.51844758 16.9403466,9.53688102 16.9383094,9.55521576 L16.0988409,17.1104315 C16.0425706,17.6168642 15.6145064,18 15.1049572,18 L8.89504279,18 C8.38549358,18 7.95742936,17.6168642 7.90115906,17.1104315 L7.06169064,9.55521576 C7.03119582,9.28076235 7.22896333,9.03355296 7.50341674,9.00305813 C7.52175149,9.00102094 7.54018493,9 7.55863251,9 Z" id="Combined-Shape" fill="#FFFFFF"></path>
                    </g>
                </g>
            </g>
        </g>
    </g>
</svg>