<?xml version="1.0" encoding="UTF-8"?>
<svg width="24px" height="24px" viewBox="0 0 24 24" version="1.1" xmlns="http://www.w3.org/2000/svg" xmlns:xlink="http://www.w3.org/1999/xlink">
    <!-- Generator: Sketch 49.3 (51167) - http://www.bohemiancoding.com/sketch -->
    <title>编辑</title>
    <desc>Created with Sketch.</desc>
    <defs>
        <rect id="path-1" x="0" y="0" width="24" height="24"></rect>
    </defs>
    <g id="Page-1" stroke="none" stroke-width="1" fill="none" fill-rule="evenodd">
        <g id="报告列表" transform="translate(-1165.000000, -243.000000)">
            <g id="Group-11" transform="translate(113.000000, 223.000000)">
                <g id="Group-9">
                    <g id="Group-6" transform="translate(1052.000000, 20.000000)">
                        <g id="Rectangle-7" opacity="0">
                            <use fill="#D8D8D8" fill-rule="evenodd" xlink:href="#path-1"></use>
                            <rect stroke="#979797" stroke-width="1" x="0.5" y="0.5" width="23" height="23"></rect>
                        </g>
                        <path d="M16.2423511,4.43255617 L10.4453138,13.9574615 C10.3136048,14.1738679 10.2689401,14.4321978 10.3203427,14.6802639 L10.9330781,17.6372864 C10.9413926,17.677412 10.9521657,17.7169885 10.9653364,17.7557921 C11.1428456,18.2787729 11.710705,18.5588329 12.2336858,18.3813236 L15.0925342,17.4109781 C15.3147442,17.335556 15.5033529,17.1843906 15.625353,16.9839367 L17,14.7253031 L17,18 C17,19.1045695 16.1045695,20 15,20 L7,20 C5.8954305,20 5,19.1045695 5,18 L5,6 C5,4.8954305 5.8954305,4 7,4 L15,4 C15.4694584,4 15.9011385,4.16174843 16.2423511,4.43255617 Z M19.2949886,4.7860568 C19.7732812,5.06219917 19.9371564,5.67378958 19.661014,6.1520822 L14.161014,15.6783616 L13.11868,16.3565958 C12.8872229,16.5072021 12.5774994,16.4416596 12.4268931,16.2102026 C12.3678854,16.1195175 12.3398848,16.012139 12.3470945,15.9041867 L12.4289632,14.6783616 L17.9289632,5.1520822 C18.2051056,4.67378958 18.816696,4.50991442 19.2949886,4.7860568 Z M8,8 C7.44771525,8 7,8.44771525 7,9 C7,9.55228475 7.44771525,10 8,10 L11,10 L12,8 L8,8 Z" id="Combined-Shape" fill="#d9534f"></path>
                    </g>
                </g>
            </g>
        </g>
    </g>
</svg>