<?xml version="1.0" encoding="UTF-8"?>
<svg width="48px" height="48px" viewBox="0 0 48 48" version="1.1" xmlns="http://www.w3.org/2000/svg" xmlns:xlink="http://www.w3.org/1999/xlink">
    <!-- Generator: Sketch 49.3 (51167) - http://www.bohemiancoding.com/sketch -->
    <title>展开</title>
    <desc>Created with Sketch.</desc>
    <defs>
        <rect id="path-1" x="0" y="0" width="48" height="48"></rect>
    </defs>
    <g id="Page-1" stroke="none" stroke-width="1" fill="none" fill-rule="evenodd">
        <g id="报告页移动端" transform="translate(-351.000000, -1143.000000)">
            <g id="Group-2" transform="translate(36.000000, 425.000000)">
                <g id="Group-3" transform="translate(315.000000, 718.000000)">
                    <g id="Rectangle-7" opacity="0">
                        <use fill="#D8D8D8" fill-rule="evenodd" xlink:href="#path-1"></use>
                        <rect stroke="#979797" stroke-width="1" x="0.5" y="0.5" width="47" height="47"></rect>
                    </g>
                    <path d="M16,27 L34,27 C35.1045695,27 36,27.8954305 36,29 C36,30.1045695 35.1045695,31 34,31 L14,31 C12.8954305,31 12,30.1045695 12,29 L12,9 C12,7.8954305 12.8954305,7 14,7 C15.1045695,7 16,7.8954305 16,9 L16,27 Z" id="Combined-Shape" fill="#666666" transform="translate(24.000000, 19.000000) rotate(-45.000000) translate(-24.000000, -19.000000) "></path>
                </g>
            </g>
        </g>
    </g>
</svg>