<?xml version="1.0" encoding="UTF-8"?>
<svg width="24px" height="24px" viewBox="0 0 24 24" version="1.1" xmlns="http://www.w3.org/2000/svg" xmlns:xlink="http://www.w3.org/1999/xlink">
    <!-- Generator: Sketch 49.3 (51167) - http://www.bohemiancoding.com/sketch -->
    <title>密码</title>
    <desc>Created with Sketch.</desc>
    <defs></defs>
    <g id="Page-1" stroke="none" stroke-width="1" fill="none" fill-rule="evenodd">
        <g id="登录" transform="translate(-962.000000, -302.000000)">
            <g id="Group-7" transform="translate(958.000000, 160.000000)">
                <g id="Group-Copy" transform="translate(0.000000, 130.000000)">
                    <g id="Group-10" transform="translate(4.000000, 12.000000)">
                        <path d="M11,14.2675644 C10.4021986,14.6133738 10,15.2597176 10,16 C10,17.1045695 10.8954305,18 12,18 C13.1045695,18 14,17.1045695 14,16 C14,15.2597176 13.5978014,14.6133738 13,14.2675644 L13,13 L11,13 L11,14.2675644 Z M17,10 L17.9931545,10 C18.5492199,10 19,10.444837 19,10.9955775 L19,20.0044225 C19,20.5542648 18.5500512,21 17.9931545,21 L6.00684547,21 C5.45078007,21 5,20.555163 5,20.0044225 L5,10.9955775 C5,10.4457352 5.44994876,10 6.00684547,10 L7,10 L7,8.00754411 C7,5.24195386 9.24419519,3 12,3 C14.7614237,3 17,5.23477967 17,8.00754411 L17,10 Z M9,10 L15,10 L15,8.00335124 C15,6.34237885 13.6568542,5 12,5 C10.3465171,5 9,6.34464615 9,8.00335124 L9,10 Z" id="Combined-Shape" fill="#D8D8D8"></path>
                        <rect id="Rectangle-8" fill="#FCC4C4" opacity="0" x="0" y="0" width="24" height="24"></rect>
                    </g>
                </g>
            </g>
        </g>
    </g>
</svg>