<?xml version="1.0" encoding="UTF-8"?>
<svg width="24px" height="24px" viewBox="0 0 24 24" version="1.1" xmlns="http://www.w3.org/2000/svg" xmlns:xlink="http://www.w3.org/1999/xlink">
    <!-- Generator: Sketch 49.3 (51167) - http://www.bohemiancoding.com/sketch -->
    <title>已添加</title>
    <desc>Created with Sketch.</desc>
    <defs>
        <rect id="path-1" x="0" y="0" width="24" height="24"></rect>
    </defs>
    <g id="Page-1" stroke="none" stroke-width="1" fill="none" fill-rule="evenodd">
        <g id="首页_下拉添加" transform="translate(-1216.000000, -673.000000)">
            <g id="Group-12" transform="translate(1073.000000, 529.000000)">
                <g id="Group-13-Copy-3" transform="translate(1.000000, 136.000000)">
                    <g id="Group-14" transform="translate(142.000000, 8.000000)">
                        <g id="Rectangle-16" opacity="0">
                            <use fill="#D8D8D8" fill-rule="evenodd" xlink:href="#path-1"></use>
                            <rect stroke="#979797" stroke-width="1" x="0.5" y="0.5" width="23" height="23"></rect>
                        </g>
                        <path d="M16.199532,7.71468157 C15.1173222,6.65400241 13.6350363,6 12,6 C8.6862915,6 6,8.6862915 6,12 C6,15.3137085 8.6862915,18 12,18 C15.3137085,18 18,15.3137085 18,12 C18,11.0508695 17.7796178,10.1532119 17.3872334,9.35540728 L12.1464466,14.5961941 C11.9511845,14.7914562 11.6952621,14.8890873 11.4393398,14.8890873 C11.1834175,14.8890873 10.9274952,14.7914562 10.732233,14.5961941 L7.90380592,11.767767 C7.51328163,11.3772427 7.51328163,10.7440777 7.90380592,10.3535534 C8.29433021,9.9630291 8.92749519,9.9630291 9.31801948,10.3535534 L11.4393398,12.4748737 L16.199532,7.71468157 Z M12,20 C7.581722,20 4,16.418278 4,12 C4,7.581722 7.581722,4 12,4 C16.418278,4 20,7.581722 20,12 C20,16.418278 16.418278,20 12,20 Z" id="Combined-Shape" fill="#999999"></path>
                    </g>
                </g>
            </g>
        </g>
    </g>
</svg>