<?xml version="1.0" encoding="UTF-8"?>
<svg width="24px" height="24px" viewBox="0 0 24 24" version="1.1" xmlns="http://www.w3.org/2000/svg" xmlns:xlink="http://www.w3.org/1999/xlink">
    <!-- Generator: Sketch 49.3 (51167) - http://www.bohemiancoding.com/sketch -->
    <title>成功保存</title>
    <desc>Created with Sketch.</desc>
    <defs></defs>
    <g id="Page-1" stroke="none" stroke-width="1" fill="none" fill-rule="evenodd">
        <g id="报告编辑_状态" transform="translate(-610.000000, -79.000000)">
            <g id="Group-6" transform="translate(590.000000, 68.000000)">
                <g id="Group-9" transform="translate(20.000000, 11.000000)">
                    <circle id="Oval-6" fill="#2ED3A8" cx="12" cy="12" r="12"></circle>
                    <path d="M8,12 L17,12 C17.5522847,12 18,12.4477153 18,13 C18,13.5522847 17.5522847,14 17,14 L7,14 C6.72385763,14 6.47385763,13.8880712 6.29289322,13.7071068 C6.11192881,13.5261424 6,13.2761424 6,13 L6,8 C6,7.44771525 6.44771525,7 7,7 C7.55228475,7 8,7.44771525 8,8 L8,12 Z" id="Combined-Shape" fill="#FFFFFF" transform="translate(12.000000, 10.500000) rotate(-45.000000) translate(-12.000000, -10.500000) "></path>
                </g>
            </g>
        </g>
    </g>
</svg>